<svg width="69" height="15" viewBox="0 0 69 15" fill="none" xmlns="http://www.w3.org/2000/svg">
<path d="M9.10547 10.502C9.10547 11.2637 8.91797 11.9199 8.54297 12.4707C8.17383 13.0215 7.64062 13.4434 6.94336 13.7363C6.25195 14.0293 5.42578 14.1758 4.46484 14.1758C3.99609 14.1758 3.54785 14.1494 3.12012 14.0967C2.69238 14.0439 2.28809 13.9678 1.90723 13.8682C1.53223 13.7627 1.18945 13.6367 0.878906 13.4902V11.5039C1.40039 11.7324 1.9834 11.9404 2.62793 12.1279C3.27246 12.3096 3.92871 12.4004 4.59668 12.4004C5.1416 12.4004 5.59277 12.3301 5.9502 12.1895C6.31348 12.043 6.58301 11.8379 6.75879 11.5742C6.93457 11.3047 7.02246 10.9912 7.02246 10.6338C7.02246 10.2529 6.91992 9.93066 6.71484 9.66699C6.50977 9.40332 6.19922 9.16309 5.7832 8.94629C5.37305 8.72363 4.85742 8.48633 4.23633 8.23438C3.81445 8.06445 3.41016 7.87109 3.02344 7.6543C2.64258 7.4375 2.30273 7.18262 2.00391 6.88965C1.70508 6.59668 1.46777 6.25098 1.29199 5.85254C1.12207 5.44824 1.03711 4.97363 1.03711 4.42871C1.03711 3.70215 1.20996 3.08105 1.55566 2.56543C1.90723 2.0498 2.39941 1.6543 3.03223 1.37891C3.6709 1.10352 4.41504 0.96582 5.26465 0.96582C5.93848 0.96582 6.57129 1.03613 7.16309 1.17676C7.76074 1.31738 8.34668 1.5166 8.9209 1.77441L8.25293 3.4707C7.72559 3.25391 7.21289 3.08105 6.71484 2.95215C6.22266 2.82324 5.71875 2.75879 5.20312 2.75879C4.75781 2.75879 4.37988 2.82617 4.06934 2.96094C3.75879 3.0957 3.52148 3.28613 3.35742 3.53223C3.19922 3.77246 3.12012 4.05957 3.12012 4.39355C3.12012 4.76855 3.21094 5.08496 3.39258 5.34277C3.58008 5.59473 3.86719 5.82617 4.25391 6.03711C4.64648 6.24805 5.15039 6.48242 5.76562 6.74023C6.47461 7.0332 7.0752 7.34082 7.56738 7.66309C8.06543 7.98535 8.44629 8.37207 8.70996 8.82324C8.97363 9.26855 9.10547 9.82812 9.10547 10.502ZM15.1875 4.08594C16.418 4.08594 17.3467 4.3584 17.9736 4.90332C18.6064 5.44824 18.9229 6.29785 18.9229 7.45215V14H17.4551L17.0596 12.6201H16.9893C16.7139 12.9717 16.4297 13.2617 16.1367 13.4902C15.8438 13.7188 15.5039 13.8887 15.1172 14C14.7363 14.1172 14.2705 14.1758 13.7197 14.1758C13.1396 14.1758 12.6211 14.0703 12.1641 13.8594C11.707 13.6426 11.3467 13.3145 11.083 12.875C10.8193 12.4355 10.6875 11.8789 10.6875 11.2051C10.6875 10.2031 11.0596 9.4502 11.8037 8.94629C12.5537 8.44238 13.6846 8.16406 15.1963 8.11133L16.8838 8.0498V7.54004C16.8838 6.86621 16.7256 6.38574 16.4092 6.09863C16.0986 5.81152 15.6592 5.66797 15.0908 5.66797C14.6045 5.66797 14.1328 5.73828 13.6758 5.87891C13.2188 6.01953 12.7734 6.19238 12.3398 6.39746L11.6719 4.93848C12.1465 4.68652 12.6855 4.48145 13.2891 4.32324C13.8984 4.16504 14.5312 4.08594 15.1875 4.08594ZM16.875 9.35059L15.6182 9.39453C14.5869 9.42969 13.8633 9.60547 13.4473 9.92188C13.0312 10.2383 12.8232 10.6719 12.8232 11.2227C12.8232 11.7031 12.9668 12.0547 13.2539 12.2773C13.541 12.4941 13.9189 12.6025 14.3877 12.6025C15.1025 12.6025 15.6943 12.4004 16.1631 11.9961C16.6377 11.5859 16.875 10.9854 16.875 10.1943V9.35059ZM25.6289 4.08594C26.8594 4.08594 27.7881 4.3584 28.415 4.90332C29.0479 5.44824 29.3643 6.29785 29.3643 7.45215V14H27.8965L27.501 12.6201H27.4307C27.1553 12.9717 26.8711 13.2617 26.5781 13.4902C26.2852 13.7188 25.9453 13.8887 25.5586 14C25.1777 14.1172 24.7119 14.1758 24.1611 14.1758C23.5811 14.1758 23.0625 14.0703 22.6055 13.8594C22.1484 13.6426 21.7881 13.3145 21.5244 12.875C21.2607 12.4355 21.1289 11.8789 21.1289 11.2051C21.1289 10.2031 21.501 9.4502 22.2451 8.94629C22.9951 8.44238 24.126 8.16406 25.6377 8.11133L27.3252 8.0498V7.54004C27.3252 6.86621 27.167 6.38574 26.8506 6.09863C26.54 5.81152 26.1006 5.66797 25.5322 5.66797C25.0459 5.66797 24.5742 5.73828 24.1172 5.87891C23.6602 6.01953 23.2148 6.19238 22.7812 6.39746L22.1133 4.93848C22.5879 4.68652 23.127 4.48145 23.7305 4.32324C24.3398 4.16504 24.9727 4.08594 25.6289 4.08594ZM27.3164 9.35059L26.0596 9.39453C25.0283 9.42969 24.3047 9.60547 23.8887 9.92188C23.4727 10.2383 23.2646 10.6719 23.2646 11.2227C23.2646 11.7031 23.4082 12.0547 23.6953 12.2773C23.9824 12.4941 24.3604 12.6025 24.8291 12.6025C25.5439 12.6025 26.1357 12.4004 26.6045 11.9961C27.0791 11.5859 27.3164 10.9854 27.3164 10.1943V9.35059ZM39.8848 10.502C39.8848 11.2637 39.6973 11.9199 39.3223 12.4707C38.9531 13.0215 38.4199 13.4434 37.7227 13.7363C37.0312 14.0293 36.2051 14.1758 35.2441 14.1758C34.7754 14.1758 34.3271 14.1494 33.8994 14.0967C33.4717 14.0439 33.0674 13.9678 32.6865 13.8682C32.3115 13.7627 31.9688 13.6367 31.6582 13.4902V11.5039C32.1797 11.7324 32.7627 11.9404 33.4072 12.1279C34.0518 12.3096 34.708 12.4004 35.376 12.4004C35.9209 12.4004 36.3721 12.3301 36.7295 12.1895C37.0928 12.043 37.3623 11.8379 37.5381 11.5742C37.7139 11.3047 37.8018 10.9912 37.8018 10.6338C37.8018 10.2529 37.6992 9.93066 37.4941 9.66699C37.2891 9.40332 36.9785 9.16309 36.5625 8.94629C36.1523 8.72363 35.6367 8.48633 35.0156 8.23438C34.5938 8.06445 34.1895 7.87109 33.8027 7.6543C33.4219 7.4375 33.082 7.18262 32.7832 6.88965C32.4844 6.59668 32.2471 6.25098 32.0713 5.85254C31.9014 5.44824 31.8164 4.97363 31.8164 4.42871C31.8164 3.70215 31.9893 3.08105 32.335 2.56543C32.6865 2.0498 33.1787 1.6543 33.8115 1.37891C34.4502 1.10352 35.1943 0.96582 36.0439 0.96582C36.7178 0.96582 37.3506 1.03613 37.9424 1.17676C38.54 1.31738 39.126 1.5166 39.7002 1.77441L39.0322 3.4707C38.5049 3.25391 37.9922 3.08105 37.4941 2.95215C37.002 2.82324 36.498 2.75879 35.9824 2.75879C35.5371 2.75879 35.1592 2.82617 34.8486 2.96094C34.5381 3.0957 34.3008 3.28613 34.1367 3.53223C33.9785 3.77246 33.8994 4.05957 33.8994 4.39355C33.8994 4.76855 33.9902 5.08496 34.1719 5.34277C34.3594 5.59473 34.6465 5.82617 35.0332 6.03711C35.4258 6.24805 35.9297 6.48242 36.5449 6.74023C37.2539 7.0332 37.8545 7.34082 38.3467 7.66309C38.8447 7.98535 39.2256 8.37207 39.4893 8.82324C39.7529 9.26855 39.8848 9.82812 39.8848 10.502ZM56.8389 14H54.4131L50.4141 8.16406L49.1484 9.19238V14H47.0391V1.15039H49.1484V7.29395C49.4062 6.97754 49.667 6.66113 49.9307 6.34473C50.1943 6.02832 50.458 5.71191 50.7217 5.39551L54.3428 1.15039H56.7246L51.9258 6.77539L56.8389 14ZM60.3896 4.27051V14H58.3242V4.27051H60.3896ZM59.3701 0.543945C59.6865 0.543945 59.959 0.628906 60.1875 0.798828C60.4219 0.96875 60.5391 1.26172 60.5391 1.67773C60.5391 2.08789 60.4219 2.38086 60.1875 2.55664C59.959 2.72656 59.6865 2.81152 59.3701 2.81152C59.042 2.81152 58.7637 2.72656 58.5352 2.55664C58.3125 2.38086 58.2012 2.08789 58.2012 1.67773C58.2012 1.26172 58.3125 0.96875 58.5352 0.798828C58.7637 0.628906 59.042 0.543945 59.3701 0.543945ZM66.9727 12.5059C67.2422 12.5059 67.5088 12.4824 67.7725 12.4355C68.0361 12.3828 68.2764 12.3213 68.4932 12.251V13.8154C68.2646 13.915 67.9688 14 67.6055 14.0703C67.2422 14.1406 66.8643 14.1758 66.4717 14.1758C65.9209 14.1758 65.4258 14.085 64.9863 13.9033C64.5469 13.7158 64.1982 13.3965 63.9404 12.9453C63.6826 12.4941 63.5537 11.8701 63.5537 11.0732V5.84375H62.2266V4.9209L63.6504 4.19141L64.3271 2.1084H65.6279V4.27051H68.4141V5.84375H65.6279V11.0469C65.6279 11.5391 65.751 11.9053 65.9971 12.1455C66.2432 12.3857 66.5684 12.5059 66.9727 12.5059Z" fill="#109CF1"/>
</svg>
